<?xml version="1.0" encoding="UTF-8" standalone="no"?>
<svg width="10px" height="8px" viewBox="0 0 10 8" version="1.1" xmlns="http://www.w3.org/2000/svg" xmlns:xlink="http://www.w3.org/1999/xlink">
    <!-- Generator: Sketch 45.1 (43504) - http://www.bohemiancoding.com/sketch -->
    <title>Shape</title>
    <desc>Created with Sketch.</desc>
    <defs></defs>
    <g id="Cotización-Paso-3" stroke="none" stroke-width="1" fill="none" fill-rule="evenodd">
        <g id="Desktop" transform="translate(-613.000000, -497.000000)" fill-rule="nonzero" fill="#019EE3">
            <g id="Deducible-UF" transform="translate(466.000000, 408.000000)">
                <path d="M156.230262,89.4552789 L155.973458,89.2418686 C155.547187,88.8875341 154.906626,88.9270307 154.53028,89.3307171 L150.234284,93.9383521 L148.937518,92.8580215 C148.511697,92.5032897 147.871038,92.5419918 147.494242,92.9452431 L147.267183,93.1882759 C147.083048,93.3852482 146.987441,93.6450784 147.001326,93.9104888 C147.015347,94.1757479 147.137687,94.424777 147.341631,94.6028144 L149.718664,96.7083733 C149.924466,96.8953201 150.200277,96.9928132 150.482189,96.9783424 C150.764102,96.9639095 151.027671,96.8386289 151.211825,96.6316311 L156.340164,90.8677367 C156.519331,90.6663569 156.608407,90.4044082 156.587756,90.1395463 C156.567125,89.8744953 156.438567,89.6283982 156.230262,89.4552789 Z" id="Shape"></path>
            </g>
        </g>
    </g>
</svg>