<?xml version="1.0" encoding="UTF-8" standalone="no"?>
<svg width="39px" height="33px" viewBox="0 0 39 33" version="1.1" xmlns="http://www.w3.org/2000/svg" xmlns:xlink="http://www.w3.org/1999/xlink">
    <!-- Generator: Sketch 45.1 (43504) - http://www.bohemiancoding.com/sketch -->
    <title>danger</title>
    <desc>Created with Sketch.</desc>
    <defs></defs>
    <g id="Contratación-Paso-3" stroke="none" stroke-width="1" fill="none" fill-rule="evenodd">
        <g id="Desktop" transform="translate(-142.000000, -2078.000000)" fill-rule="nonzero" fill="#FB802F">
            <g id="danger" transform="translate(142.000000, 2078.000000)">
                <path d="M38.6567695,29.3719679 L21.5462813,1.1759656 C21.1138535,0.463362385 20.3374336,0.0276261468 19.4999238,0.0276261468 C18.6624141,0.0276261468 17.8859941,0.463286697 17.4535664,1.1759656 L0.343230469,29.3719679 C-0.101765625,30.1053096 -0.114943359,31.02 0.308876953,31.7656032 C0.732697266,32.5112821 1.52770313,32.9723739 2.38951172,32.9723739 L36.6104121,32.9723739 C37.4722207,32.9723739 38.2672266,32.5112064 38.6910469,31.7656032 C39.1148672,31.0199243 39.1017656,30.1053096 38.6567695,29.3719679 Z M19.5127207,9.78094266 C20.4954141,9.78094266 21.3269063,10.3318005 21.3269063,11.3081766 C21.3269063,14.2874862 20.9741543,18.5688578 20.9741543,21.5481674 C20.9741543,22.3243486 20.1174492,22.6497317 19.5127207,22.6497317 C18.7065176,22.6497317 18.0261504,22.3242729 18.0261504,21.5481674 C18.0261504,18.5688578 17.6734746,14.2874862 17.6734746,11.3081766 C17.6734746,10.3318005 18.4796777,9.78094266 19.5127207,9.78094266 Z M19.5379336,28.2330138 C18.4293281,28.2330138 17.5977598,27.3317202 17.5977598,26.3052385 C17.5977598,25.2537041 18.429252,24.3774633 19.5379336,24.3774633 C20.5709766,24.3774633 21.4528945,25.2537041 21.4528945,26.3052385 C21.4528945,27.3317202 20.5709766,28.2330138 19.5379336,28.2330138 Z" id="Shape"></path>
            </g>
        </g>
    </g>
</svg>